<?xml version="1.0" encoding="UTF-8"?>
<svg id="Capa_1" data-name="Capa 1" xmlns="http://www.w3.org/2000/svg" viewBox="0 0 140.66 129.95">
  <defs>
    <style>
      .cls-1 {
        fill: #7d9d9b;
      }
    </style>
  </defs>
  <path class="cls-1" d="M83.87,6.83c3.43,0,6.32.41,8.66,1.23,2.35.82,4.6,1.73,6.76,2.74,2.16,1.01,4.53,1.94,7.1,2.79,2.57.86,5.8,1.29,9.67,1.29l.11,2.01c-.67.37-1.19.93-1.56,1.68-.37.6-.65,1.42-.84,2.46-.19,1.04-.13,2.39.17,4.03l9.95,49.87c.37,1.72.88,3.07,1.51,4.08.63,1.01,1.29,1.81,1.96,2.4.74.67,1.53,1.16,2.35,1.45v2.24h-25.49v-2.24c.74-.3,1.34-.78,1.79-1.45.45-.6.8-1.4,1.06-2.4.26-1.01.2-2.36-.17-4.08l-3.13-15.77h-17.22l-4.47,15.65c-.52,1.72-.75,3.11-.67,4.19.07,1.08.22,1.92.45,2.52.3.67.74,1.12,1.34,1.34l-.11,2.24h-16.66v-2.24c.74-.15,1.49-.52,2.24-1.12.67-.6,1.38-1.41,2.12-2.46.74-1.04,1.41-2.53,2.01-4.47l17.22-61.61c-2.01-1.57-4.25-2.35-6.71-2.35-1.57,0-3.19.3-4.86.89-1.68.6-3.21,1.55-4.58,2.85-1.38,1.31-2.52,2.95-3.41,4.92-.89,1.98-1.34,4.3-1.34,6.99,0,2.24.37,4.01,1.12,5.31.74,1.3,1.55,2.46,2.4,3.47.86,1.01,1.66,2,2.4,2.96.74.97,1.12,2.16,1.12,3.58,0,1.49-.45,2.63-1.34,3.41-.89.78-2.09,1.17-3.58,1.17-3.58,0-6.49-.97-8.72-2.91-2.24-1.94-3.76-4.38-4.58-7.32-.82-2.94-.89-6.13-.22-9.56.67-3.43,2.07-6.61,4.19-9.56,2.12-2.94,5.01-5.38,8.66-7.32,3.65-1.94,8.09-2.91,13.31-2.91ZM88.01,53.91h14.76l-6.15-30.19-8.61,30.19Z"/>
  <path class="cls-1" d="M67.77,70.64c0,2.9-1.16,6.68-4.74,6.68-10.36,0-7.26-18.29-21.68-18.29-5.61,0-9.19,3.77-9.19,9.48,0,15.78,37.46,6.2,37.46,32.23,0,16.55-14.13,22.16-28.84,22.16-8.71,0-22.84-4.94-22.84-15.78,0-3.19,2.32-5.32,5.61-5.32,9.29,0,5.32,14.52,20.91,14.52,5.03,0,13.45-2.23,13.45-8.61,0-15.49-38.42-7.65-38.42-35.13,0-14.03,11.52-20.04,24.2-20.04,11.32,0,24.1,4.74,24.1,18.1Z"/>
  <path class="cls-1" d="M86.18,103.82c3.78-1.64,6.53-5,7.31-9.06.78,4.05,3.53,7.41,7.31,9.06.73.32,2.56.81,2.56.81,0,0-1.83.49-2.56.81-3.78,1.64-6.53,5-7.31,9.06-.78-4.05-3.53-7.41-7.31-9.06-.73-.32-2.56-.81-2.56-.81,0,0,1.83-.49,2.56-.81Z"/>
  <path class="cls-1" d="M33.81,28.13c3.78-1.64,6.53-5,7.31-9.06.78,4.05,3.53,7.41,7.31,9.06.73.32,2.56.81,2.56.81,0,0-1.83.49-2.56.81-3.78,1.64-6.53,5-7.31,9.06-.78-4.05-3.53-7.41-7.31-9.06-.73-.32-2.56-.81-2.56-.81,0,0,1.83-.49,2.56-.81Z"/>
</svg>